# xmcd CD database file
#
# Track frame offsets:
#	150
#	31613
#	48603
#	69465
#	90770
#	112161
#	134715
#	160937
#	188102
#	209253
#
# Disc length: 2819 seconds
#
# Revision: 0
# Processed by: cddbd v1.5.1PL0 Copyright (c) Steve Scherf et al.
# Submitted via: CDex 1.51
#
DISCID=870b010a
DTITLE=JOJO広重 - 生きている価値なし
DYEAR=2002
DGENRE=Noise
TTITLE0=死神に会う時のように
TTITLE1=生きている価値なし
TTITLE2=三月の雪
TTITLE3=それで全てが終わるなら
TTITLE4=好きなんだ
TTITLE5=神よ
TTITLE6=LOVE LOVE LOVE
TTITLE7=死にたいだけ
TTITLE8=地獄!
TTITLE9=生きている価値なし(reprise)
EXTD=YEAR: 2002
EXTT0=
EXTT1=
EXTT2=
EXTT3=
EXTT4=
EXTT5=
EXTT6=
EXTT7=
EXTT8=
EXTT9=
PLAYORDER=
